<?xml version="1.0" encoding="utf-8"?>
<!-- Generator: Adobe Illustrator 16.0.0, SVG Export Plug-In . SVG Version: 6.00 Build 0)  -->
<!DOCTYPE svg PUBLIC "-//W3C//DTD SVG 1.1//EN" "http://www.w3.org/Graphics/SVG/1.1/DTD/svg11.dtd">
<svg version="1.1"
	 id="svg2" xmlns:dc="http://purl.org/dc/elements/1.1/" xmlns:cc="http://creativecommons.org/ns#" xmlns:rdf="http://www.w3.org/1999/02/22-rdf-syntax-ns#" xmlns:svg="http://www.w3.org/2000/svg" xmlns:sodipodi="http://sodipodi.sourceforge.net/DTD/sodipodi-0.dtd" xmlns:inkscape="http://www.inkscape.org/namespaces/inkscape" sodipodi:docname="New document 1" inkscape:version="0.48.0 r9654"
	 xmlns="http://www.w3.org/2000/svg" xmlns:xlink="http://www.w3.org/1999/xlink" x="0px" y="0px" width="780px" height="884px"
	 viewBox="-335.129 -381.631 780 884" enable-background="new -335.129 -381.631 780 884" xml:space="preserve">
<sodipodi:namedview  fit-margin-left="0" fit-margin-top="0" showgrid="false" inkscape:cy="68.247994" inkscape:cx="92.364887" inkscape:zoom="4" borderopacity="1.0" bordercolor="#666666" pagecolor="#ffffff" id="base" inkscape:window-maximized="1" inkscape:window-y="-4" inkscape:window-x="-4" inkscape:window-height="975" inkscape:window-width="1280" inkscape:current-layer="layer1" inkscape:document-units="px" inkscape:pageopacity="0.0" fit-margin-right="0" fit-margin-bottom="0" inkscape:pageshadow="2">
	</sodipodi:namedview>
<g>
	<g>
		<g>
			
				<linearGradient id="path4026_1_" gradientUnits="userSpaceOnUse" x1="-341.481" y1="-730.3857" x2="-341.481" y2="334.0526" gradientTransform="matrix(0.125 0 0 -0.125 -210.1523 -331.4236)">
				<stop  offset="0" style="stop-color:#B3B3B3"/>
				<stop  offset="1" style="stop-color:#E6E6E6"/>
			</linearGradient>
			
				<path id="path4026" sodipodi:type="star" sodipodi:sides="5" sodipodi:cx="69.877968" sodipodi:cy="335.41425" sodipodi:r1="86.929985" sodipodi:r2="43.464993" sodipodi:arg1="0.933726" sodipodi:arg2="1.5620445" inkscape:flatsided="false" inkscape:rounded="0" inkscape:randomized="0" inkscape:transform-center-x="0.029387579" inkscape:transform-center-y="-1.0096501" fill="url(#path4026_1_)" stroke="#666666" stroke-width="4" d="
				M-207.424-240.116l-44.869-23.122l-44.458,23.907l8.095-49.86l-36.447-34.947l49.878-7.694l21.922-45.499l22.734,45.103
				l49.998,6.823l-35.819,35.574L-207.424-240.116z"/>
			
				<linearGradient id="path4036_1_" gradientUnits="userSpaceOnUse" x1="47.3696" y1="401.0869" x2="47.3696" y2="175.8522" gradientTransform="matrix(0.5 0 0 -0.5 -276.5327 -173.8486)">
				<stop  offset="0" style="stop-color:#FFFFFF"/>
				<stop  offset="1" style="stop-color:#FFFFFF;stop-opacity:0"/>
			</linearGradient>
			<path id="path4036" inkscape:connector-curvature="0" fill="url(#path4036_1_)" d="M-253.33-377.331l-21.87,45.506l-49.93,7.65
				l32.461,31.062c25.219-13.401,70.417-21.888,101.719-21.98l10.381-10.283l-50.045-6.889L-253.33-377.331z"/>
		</g>
		<g>
			
				<linearGradient id="path4301_1_" gradientUnits="userSpaceOnUse" x1="713.3945" y1="-730.3857" x2="713.3945" y2="334.0526" gradientTransform="matrix(0.125 0 0 -0.125 -188.1523 -331.4236)">
				<stop  offset="0" style="stop-color:#B3B3B3"/>
				<stop  offset="1" style="stop-color:#E6E6E6"/>
			</linearGradient>
			
				<path id="path4301" sodipodi:type="star" sodipodi:sides="5" sodipodi:cx="69.877968" sodipodi:cy="335.41425" sodipodi:r1="86.929985" sodipodi:r2="43.464993" sodipodi:arg1="0.933726" sodipodi:arg2="1.5620445" inkscape:flatsided="false" inkscape:rounded="0" inkscape:randomized="0" inkscape:transform-center-x="0.029387579" inkscape:transform-center-y="-1.0096501" fill="url(#path4301_1_)" stroke="#666666" stroke-width="4" d="
				M-53.574-240.116l-44.869-23.122l-44.458,23.907l8.093-49.86l-36.447-34.947l49.881-7.694l21.939-45.499l22.732,45.103
				l49.999,6.823l-35.839,35.574L-53.574-240.116z"/>
			
				<linearGradient id="path4303_1_" gradientUnits="userSpaceOnUse" x1="311.0879" y1="401.0869" x2="311.0879" y2="175.8522" gradientTransform="matrix(0.5 0 0 -0.5 -254.5327 -173.8486)">
				<stop  offset="0" style="stop-color:#FFFFFF"/>
				<stop  offset="1" style="stop-color:#FFFFFF;stop-opacity:0"/>
			</linearGradient>
			<path id="path4303" inkscape:connector-curvature="0" fill="url(#path4303_1_)" d="M-99.477-377.331l-21.853,45.506l-49.949,7.65
				l32.463,31.062C-113.598-306.514-68.4-315-37.079-315.093l10.38-10.283l-50.045-6.889L-99.477-377.331z"/>
		</g>
		<g>
			
				<linearGradient id="path4329_1_" gradientUnits="userSpaceOnUse" x1="1768.3398" y1="-730.3857" x2="1768.3398" y2="334.0526" gradientTransform="matrix(0.125 0 0 -0.125 -166.1523 -331.4236)">
				<stop  offset="0" style="stop-color:#B3B3B3"/>
				<stop  offset="1" style="stop-color:#E6E6E6"/>
			</linearGradient>
			
				<path id="path4329" sodipodi:type="star" sodipodi:sides="5" sodipodi:cx="69.877968" sodipodi:cy="335.41425" sodipodi:r1="86.929985" sodipodi:r2="43.464993" sodipodi:arg1="0.933726" sodipodi:arg2="1.5620445" inkscape:flatsided="false" inkscape:rounded="0" inkscape:randomized="0" inkscape:transform-center-x="0.029387579" inkscape:transform-center-y="-1.0096501" fill="url(#path4329_1_)" stroke="#666666" stroke-width="4" d="
				M100.296-240.116l-44.889-23.122L10.95-239.331l8.104-49.86l-36.438-34.947l49.862-7.694l21.938-45.499l22.734,45.103
				l50.014,6.823l-35.839,35.574L100.296-240.116z"/>
			
				<linearGradient id="path4331_1_" gradientUnits="userSpaceOnUse" x1="574.8281" y1="401.0869" x2="574.8281" y2="175.8522" gradientTransform="matrix(0.5 0 0 -0.5 -232.5327 -173.8486)">
				<stop  offset="0" style="stop-color:#FFFFFF"/>
				<stop  offset="1" style="stop-color:#FFFFFF;stop-opacity:0"/>
			</linearGradient>
			<path id="path4331" inkscape:connector-curvature="0" fill="url(#path4331_1_)" d="M54.373-377.331l-21.853,45.506l-49.93,7.65
				l32.443,31.062C40.252-306.514,85.47-315,116.791-315.093l10.381-10.283l-50.064-6.889L54.373-377.331z"/>
		</g>
		<g>
			
				<linearGradient id="path4357_1_" gradientUnits="userSpaceOnUse" x1="2823.0469" y1="-730.3857" x2="2823.0469" y2="334.0526" gradientTransform="matrix(0.125 0 0 -0.125 -144.1523 -331.4236)">
				<stop  offset="0" style="stop-color:#B3B3B3"/>
				<stop  offset="1" style="stop-color:#E6E6E6"/>
			</linearGradient>
			
				<path id="path4357" sodipodi:type="star" sodipodi:sides="5" sodipodi:cx="69.877968" sodipodi:cy="335.41425" sodipodi:r1="86.929985" sodipodi:r2="43.464993" sodipodi:arg1="0.933726" sodipodi:arg2="1.5620445" inkscape:flatsided="false" inkscape:rounded="0" inkscape:randomized="0" inkscape:transform-center-x="0.029387579" inkscape:transform-center-y="-1.0096501" fill="url(#path4357_1_)" stroke="#666666" stroke-width="4" d="
				M254.164-240.116l-44.887-23.122l-44.458,23.907l8.09-49.86l-36.447-34.947l49.885-7.694l21.919-45.499l22.754,45.103
				l49.975,6.823l-35.799,35.574L254.164-240.116z"/>
			
				<linearGradient id="path4359_1_" gradientUnits="userSpaceOnUse" x1="838.5068" y1="401.0869" x2="838.5068" y2="175.8522" gradientTransform="matrix(0.5 0 0 -0.5 -210.5327 -173.8486)">
				<stop  offset="0" style="stop-color:#FFFFFF"/>
				<stop  offset="1" style="stop-color:#FFFFFF;stop-opacity:0"/>
			</linearGradient>
			<path id="path4359" inkscape:connector-curvature="0" fill="url(#path4359_1_)" d="M208.223-377.331l-21.833,45.506l-49.949,7.65
				l32.444,31.062c25.221-13.401,70.441-21.888,101.736-21.98l10.381-10.283l-50.025-6.889L208.223-377.331z"/>
		</g>
		<g>
			
				<linearGradient id="path4385_1_" gradientUnits="userSpaceOnUse" x1="3878.0078" y1="-730.3857" x2="3878.0078" y2="334.0526" gradientTransform="matrix(0.125 0 0 -0.125 -122.1523 -331.4236)">
				<stop  offset="0" style="stop-color:#B3B3B3"/>
				<stop  offset="1" style="stop-color:#E6E6E6"/>
			</linearGradient>
			
				<path id="path4385" sodipodi:type="star" sodipodi:sides="5" sodipodi:cx="69.877968" sodipodi:cy="335.41425" sodipodi:r1="86.929985" sodipodi:r2="43.464993" sodipodi:arg1="0.933726" sodipodi:arg2="1.5620445" inkscape:flatsided="false" inkscape:rounded="0" inkscape:randomized="0" inkscape:transform-center-x="0.029387579" inkscape:transform-center-y="-1.0096501" fill="url(#path4385_1_)" stroke="#666666" stroke-width="4" d="
				M407.996-240.116l-44.85-23.122l-44.463,23.907l8.095-49.86l-36.446-34.947l49.885-7.694l21.919-45.499l22.714,45.103
				l50.015,6.823l-35.839,35.574L407.996-240.116z"/>
			
				<linearGradient id="path4387_1_" gradientUnits="userSpaceOnUse" x1="1102.2461" y1="401.0869" x2="1102.2461" y2="175.8522" gradientTransform="matrix(0.5 0 0 -0.5 -188.5327 -173.8486)">
				<stop  offset="0" style="stop-color:#FFFFFF"/>
				<stop  offset="1" style="stop-color:#FFFFFF;stop-opacity:0"/>
			</linearGradient>
			<path id="path4387" inkscape:connector-curvature="0" fill="url(#path4387_1_)" d="M362.093-377.331l-21.835,45.506l-49.947,7.65
				l32.443,31.062c25.221-13.401,70.416-21.888,101.736-21.98l10.381-10.283l-50.059-6.889L362.093-377.331z"/>
		</g>
	</g>
	<g>
		
			<linearGradient id="path4016_1_" gradientUnits="userSpaceOnUse" x1="-341.48" y1="-1109.6016" x2="-341.48" y2="-1687.9094" gradientTransform="matrix(0.125 0 0 -0.125 -210.1523 -311.4236)">
			<stop  offset="0" style="stop-color:#A46800"/>
			<stop  offset="1" style="stop-color:#E8D050"/>
		</linearGradient>
		
			<path id="path4016" sodipodi:type="star" sodipodi:sides="5" sodipodi:cx="69.877968" sodipodi:cy="335.41425" sodipodi:r1="86.929985" sodipodi:r2="43.464993" sodipodi:arg1="0.933726" sodipodi:arg2="1.5620445" inkscape:flatsided="false" inkscape:rounded="0" inkscape:randomized="0" inkscape:transform-center-x="0.029387579" inkscape:transform-center-y="-1.0096501" fill="url(#path4016_1_)" stroke="#945800" stroke-width="4" d="
			M-207.424-92.444l-44.869-23.114l-44.458,23.908l8.095-49.881l-36.447-34.927l49.878-7.694l21.922-45.499l22.734,45.103
			l49.998,6.822l-35.819,35.575L-207.424-92.444z"/>
		
			<linearGradient id="path4041_1_" gradientUnits="userSpaceOnUse" x1="68.4404" y1="206.209" x2="68.4404" y2="64.9438" gradientTransform="matrix(1 0 0 -1 -321.2891 -46.958)">
			<stop  offset="0" style="stop-color:#FFFFFF"/>
			<stop  offset="1" style="stop-color:#FCFC80"/>
		</linearGradient>
		<path id="path4041" inkscape:connector-curvature="0" opacity="0.6" fill="url(#path4041_1_)" enable-background="new    " d="
			M-253.33-229.65l-21.87,45.505l-49.93,7.65l32.461,31.062c25.219-13.401,70.417-21.887,101.719-21.98l10.381-10.283l-50.045-6.888
			L-253.33-229.65z"/>
		
			<linearGradient id="path4403_1_" gradientUnits="userSpaceOnUse" x1="713.3945" y1="-1751.8311" x2="713.3945" y2="-687.3927" gradientTransform="matrix(0.125 0 0 -0.125 -188.1523 -311.4236)">
			<stop  offset="0" style="stop-color:#B3B3B3"/>
			<stop  offset="1" style="stop-color:#E6E6E6"/>
		</linearGradient>
		
			<path id="path4403" sodipodi:type="star" sodipodi:sides="5" sodipodi:cx="69.877968" sodipodi:cy="335.41425" sodipodi:r1="86.929985" sodipodi:r2="43.464993" sodipodi:arg1="0.933726" sodipodi:arg2="1.5620445" inkscape:flatsided="false" inkscape:rounded="0" inkscape:randomized="0" inkscape:transform-center-x="0.029387579" inkscape:transform-center-y="-1.0096501" fill="url(#path4403_1_)" stroke="#666666" stroke-width="4" d="
			M-53.574-92.444l-44.869-23.114L-142.9-91.65l8.093-49.881l-36.447-34.927l49.881-7.694l21.939-45.499l22.732,45.103l49.999,6.822
			l-35.839,35.575L-53.574-92.444z"/>
		
			<linearGradient id="path4405_1_" gradientUnits="userSpaceOnUse" x1="311.0879" y1="145.7256" x2="311.0879" y2="-79.5065" gradientTransform="matrix(0.5 0 0 -0.5 -254.5327 -153.8486)">
			<stop  offset="0" style="stop-color:#FFFFFF"/>
			<stop  offset="1" style="stop-color:#FFFFFF;stop-opacity:0"/>
		</linearGradient>
		<path id="path4405" inkscape:connector-curvature="0" fill="url(#path4405_1_)" d="M-99.477-229.65l-21.853,45.505l-49.949,7.65
			l32.463,31.062c25.217-13.401,70.416-21.887,101.737-21.98l10.38-10.283l-50.045-6.888L-99.477-229.65z"/>
		
			<linearGradient id="path4407_1_" gradientUnits="userSpaceOnUse" x1="1768.3398" y1="-1751.8311" x2="1768.3398" y2="-687.3927" gradientTransform="matrix(0.125 0 0 -0.125 -166.1523 -311.4236)">
			<stop  offset="0" style="stop-color:#B3B3B3"/>
			<stop  offset="1" style="stop-color:#E6E6E6"/>
		</linearGradient>
		
			<path id="path4407" sodipodi:type="star" sodipodi:sides="5" sodipodi:cx="69.877968" sodipodi:cy="335.41425" sodipodi:r1="86.929985" sodipodi:r2="43.464993" sodipodi:arg1="0.933726" sodipodi:arg2="1.5620445" inkscape:flatsided="false" inkscape:rounded="0" inkscape:randomized="0" inkscape:transform-center-x="0.029387579" inkscape:transform-center-y="-1.0096501" fill="url(#path4407_1_)" stroke="#666666" stroke-width="4" d="
			M100.296-92.444l-44.889-23.114L10.95-91.65l8.104-49.881l-36.438-34.927l49.862-7.694l21.938-45.499l22.734,45.103l50.014,6.822
			l-35.839,35.575L100.296-92.444z"/>
		
			<linearGradient id="path4409_1_" gradientUnits="userSpaceOnUse" x1="574.8281" y1="145.7256" x2="574.8281" y2="-79.5065" gradientTransform="matrix(0.5 0 0 -0.5 -232.5327 -153.8486)">
			<stop  offset="0" style="stop-color:#FFFFFF"/>
			<stop  offset="1" style="stop-color:#FFFFFF;stop-opacity:0"/>
		</linearGradient>
		<path id="path4409" inkscape:connector-curvature="0" fill="url(#path4409_1_)" d="M54.373-229.65l-21.853,45.505l-49.93,7.65
			l32.443,31.062c25.218-13.401,70.436-21.887,101.757-21.98l10.381-10.283l-50.064-6.888L54.373-229.65z"/>
		
			<linearGradient id="path4411_1_" gradientUnits="userSpaceOnUse" x1="2823.0469" y1="-1751.8311" x2="2823.0469" y2="-687.3927" gradientTransform="matrix(0.125 0 0 -0.125 -144.1523 -311.4236)">
			<stop  offset="0" style="stop-color:#B3B3B3"/>
			<stop  offset="1" style="stop-color:#E6E6E6"/>
		</linearGradient>
		
			<path id="path4411" sodipodi:type="star" sodipodi:sides="5" sodipodi:cx="69.877968" sodipodi:cy="335.41425" sodipodi:r1="86.929985" sodipodi:r2="43.464993" sodipodi:arg1="0.933726" sodipodi:arg2="1.5620445" inkscape:flatsided="false" inkscape:rounded="0" inkscape:randomized="0" inkscape:transform-center-x="0.029387579" inkscape:transform-center-y="-1.0096501" fill="url(#path4411_1_)" stroke="#666666" stroke-width="4" d="
			M254.164-92.444l-44.887-23.114L164.819-91.65l8.09-49.881l-36.447-34.927l49.885-7.694l21.919-45.499l22.754,45.103l49.975,6.822
			l-35.799,35.575L254.164-92.444z"/>
		
			<linearGradient id="path4413_1_" gradientUnits="userSpaceOnUse" x1="838.5068" y1="145.7256" x2="838.5068" y2="-79.5065" gradientTransform="matrix(0.5 0 0 -0.5 -210.5327 -153.8486)">
			<stop  offset="0" style="stop-color:#FFFFFF"/>
			<stop  offset="1" style="stop-color:#FFFFFF;stop-opacity:0"/>
		</linearGradient>
		<path id="path4413" inkscape:connector-curvature="0" fill="url(#path4413_1_)" d="M208.223-229.65l-21.833,45.505l-49.949,7.65
			l32.444,31.062c25.221-13.401,70.441-21.887,101.736-21.98l10.381-10.283l-50.025-6.888L208.223-229.65z"/>
		
			<linearGradient id="path4415_1_" gradientUnits="userSpaceOnUse" x1="3878.0078" y1="-1751.8311" x2="3878.0078" y2="-687.3927" gradientTransform="matrix(0.125 0 0 -0.125 -122.1523 -311.4236)">
			<stop  offset="0" style="stop-color:#B3B3B3"/>
			<stop  offset="1" style="stop-color:#E6E6E6"/>
		</linearGradient>
		
			<path id="path4415" sodipodi:type="star" sodipodi:sides="5" sodipodi:cx="69.877968" sodipodi:cy="335.41425" sodipodi:r1="86.929985" sodipodi:r2="43.464993" sodipodi:arg1="0.933726" sodipodi:arg2="1.5620445" inkscape:flatsided="false" inkscape:rounded="0" inkscape:randomized="0" inkscape:transform-center-x="0.029387579" inkscape:transform-center-y="-1.0096501" fill="url(#path4415_1_)" stroke="#666666" stroke-width="4" d="
			M407.996-92.444l-44.85-23.114L318.684-91.65l8.095-49.881l-36.446-34.927l49.885-7.694l21.919-45.499l22.714,45.103l50.015,6.822
			l-35.839,35.575L407.996-92.444z"/>
		
			<linearGradient id="path4417_1_" gradientUnits="userSpaceOnUse" x1="1102.2461" y1="145.7256" x2="1102.2461" y2="-79.5065" gradientTransform="matrix(0.5 0 0 -0.5 -188.5327 -153.8486)">
			<stop  offset="0" style="stop-color:#FFFFFF"/>
			<stop  offset="1" style="stop-color:#FFFFFF;stop-opacity:0"/>
		</linearGradient>
		<path id="path4417" inkscape:connector-curvature="0" fill="url(#path4417_1_)" d="M362.093-229.65l-21.835,45.505l-49.947,7.65
			l32.443,31.062c25.221-13.401,70.416-21.887,101.736-21.98l10.381-10.283l-50.059-6.888L362.093-229.65z"/>
	</g>
	<g>
		
			<linearGradient id="path4465_1_" gradientUnits="userSpaceOnUse" x1="1768.3398" y1="-2773.2686" x2="1768.3398" y2="-1708.8302" gradientTransform="matrix(0.125 0 0 -0.125 -166.1523 -291.4236)">
			<stop  offset="0" style="stop-color:#B3B3B3"/>
			<stop  offset="1" style="stop-color:#E6E6E6"/>
		</linearGradient>
		
			<path id="path4465" sodipodi:type="star" sodipodi:sides="5" sodipodi:cx="69.877968" sodipodi:cy="335.41425" sodipodi:r1="86.929985" sodipodi:r2="43.464993" sodipodi:arg1="0.933726" sodipodi:arg2="1.5620445" inkscape:flatsided="false" inkscape:rounded="0" inkscape:randomized="0" inkscape:transform-center-x="0.029387579" inkscape:transform-center-y="-1.0096501" fill="url(#path4465_1_)" stroke="#666666" stroke-width="4" d="
			M100.296,55.245L55.407,32.139L10.95,56.029l8.104-49.867l-36.438-34.934l49.862-7.708l21.938-45.491L77.15-36.869l50.014,6.83
			L91.325,5.541L100.296,55.245z"/>
		
			<linearGradient id="path4467_1_" gradientUnits="userSpaceOnUse" x1="574.8281" y1="-109.6353" x2="574.8281" y2="-334.9013" gradientTransform="matrix(0.5 0 0 -0.5 -232.5327 -133.8486)">
			<stop  offset="0" style="stop-color:#FFFFFF"/>
			<stop  offset="1" style="stop-color:#FFFFFF;stop-opacity:0"/>
		</linearGradient>
		<path id="path4467" inkscape:connector-curvature="0" fill="url(#path4467_1_)" d="M54.373-81.971L32.521-36.478l-49.93,7.671
			L15.034,2.26C40.252-11.144,85.47-19.65,116.791-19.724l10.381-10.286l-50.064-6.889L54.373-81.971z"/>
		
			<linearGradient id="path4469_1_" gradientUnits="userSpaceOnUse" x1="2823.0469" y1="-2773.2686" x2="2823.0469" y2="-1708.8302" gradientTransform="matrix(0.125 0 0 -0.125 -144.1523 -291.4236)">
			<stop  offset="0" style="stop-color:#B3B3B3"/>
			<stop  offset="1" style="stop-color:#E6E6E6"/>
		</linearGradient>
		
			<path id="path4469" sodipodi:type="star" sodipodi:sides="5" sodipodi:cx="69.877968" sodipodi:cy="335.41425" sodipodi:r1="86.929985" sodipodi:r2="43.464993" sodipodi:arg1="0.933726" sodipodi:arg2="1.5620445" inkscape:flatsided="false" inkscape:rounded="0" inkscape:randomized="0" inkscape:transform-center-x="0.029387579" inkscape:transform-center-y="-1.0096501" fill="url(#path4469_1_)" stroke="#666666" stroke-width="4" d="
			M254.164,55.245l-44.887-23.106l-44.458,23.891l8.09-49.867l-36.447-34.934l49.885-7.708l21.919-45.491l22.754,45.102l49.975,6.83
			l-35.799,35.58L254.164,55.245z"/>
		
			<linearGradient id="path4471_1_" gradientUnits="userSpaceOnUse" x1="838.5068" y1="-109.6353" x2="838.5068" y2="-334.9013" gradientTransform="matrix(0.5 0 0 -0.5 -210.5327 -133.8486)">
			<stop  offset="0" style="stop-color:#FFFFFF"/>
			<stop  offset="1" style="stop-color:#FFFFFF;stop-opacity:0"/>
		</linearGradient>
		<path id="path4471" inkscape:connector-curvature="0" fill="url(#path4471_1_)" d="M208.223-81.971L186.39-36.478l-49.949,7.671
			L168.885,2.26c25.221-13.404,70.441-21.91,101.736-21.983l10.381-10.286l-50.025-6.889L208.223-81.971z"/>
		
			<linearGradient id="path4473_1_" gradientUnits="userSpaceOnUse" x1="3878.0078" y1="-2773.2686" x2="3878.0078" y2="-1708.8302" gradientTransform="matrix(0.125 0 0 -0.125 -122.1523 -291.4236)">
			<stop  offset="0" style="stop-color:#B3B3B3"/>
			<stop  offset="1" style="stop-color:#E6E6E6"/>
		</linearGradient>
		
			<path id="path4473" sodipodi:type="star" sodipodi:sides="5" sodipodi:cx="69.877968" sodipodi:cy="335.41425" sodipodi:r1="86.929985" sodipodi:r2="43.464993" sodipodi:arg1="0.933726" sodipodi:arg2="1.5620445" inkscape:flatsided="false" inkscape:rounded="0" inkscape:randomized="0" inkscape:transform-center-x="0.029387579" inkscape:transform-center-y="-1.0096501" fill="url(#path4473_1_)" stroke="#666666" stroke-width="4" d="
			M407.996,55.245l-44.85-23.106l-44.463,23.891l8.095-49.867l-36.446-34.934l49.885-7.708l21.919-45.491l22.714,45.102l50.015,6.83
			l-35.839,35.58L407.996,55.245z"/>
		
			<linearGradient id="path4475_1_" gradientUnits="userSpaceOnUse" x1="1102.2461" y1="-109.6353" x2="1102.2461" y2="-334.9013" gradientTransform="matrix(0.5 0 0 -0.5 -188.5327 -133.8486)">
			<stop  offset="0" style="stop-color:#FFFFFF"/>
			<stop  offset="1" style="stop-color:#FFFFFF;stop-opacity:0"/>
		</linearGradient>
		<path id="path4475" inkscape:connector-curvature="0" fill="url(#path4475_1_)" d="M362.093-81.971l-21.835,45.493l-49.947,7.671
			L322.754,2.26c25.221-13.404,70.416-21.91,101.736-21.983l10.381-10.286l-50.059-6.889L362.093-81.971z"/>
		
			<linearGradient id="path4513_1_" gradientUnits="userSpaceOnUse" x1="-341.48" y1="-2131.0391" x2="-341.48" y2="-2709.3469" gradientTransform="matrix(0.125 0 0 -0.125 -210.1523 -291.4236)">
			<stop  offset="0" style="stop-color:#A46800"/>
			<stop  offset="1" style="stop-color:#E8D050"/>
		</linearGradient>
		
			<path id="path4513" sodipodi:type="star" sodipodi:sides="5" sodipodi:cx="69.877968" sodipodi:cy="335.41425" sodipodi:r1="86.929985" sodipodi:r2="43.464993" sodipodi:arg1="0.933726" sodipodi:arg2="1.5620445" inkscape:flatsided="false" inkscape:rounded="0" inkscape:randomized="0" inkscape:transform-center-x="0.029387579" inkscape:transform-center-y="-1.0096501" fill="url(#path4513_1_)" stroke="#945800" stroke-width="4" d="
			M-207.424,55.245l-44.869-23.106l-44.458,23.891l8.095-49.867l-36.447-34.934l49.878-7.708l21.922-45.491l22.734,45.102
			l49.998,6.83l-35.819,35.58L-207.424,55.245z"/>
		
			<linearGradient id="path4515_1_" gradientUnits="userSpaceOnUse" x1="68.4404" y1="78.5322" x2="68.4404" y2="-62.7526" gradientTransform="matrix(1 0 0 -1 -321.2891 -26.958)">
			<stop  offset="0" style="stop-color:#FFFFFF"/>
			<stop  offset="1" style="stop-color:#FCFC80"/>
		</linearGradient>
		<path id="path4515" inkscape:connector-curvature="0" opacity="0.6" fill="url(#path4515_1_)" enable-background="new    " d="
			M-253.33-81.971l-21.87,45.493l-49.93,7.671l32.461,31.066c25.219-13.404,70.417-21.91,101.719-21.983l10.381-10.286
			l-50.045-6.889L-253.33-81.971z"/>
		
			<linearGradient id="path4521_1_" gradientUnits="userSpaceOnUse" x1="713.3945" y1="-2131.0391" x2="713.3945" y2="-2709.3469" gradientTransform="matrix(0.125 0 0 -0.125 -188.1523 -291.4236)">
			<stop  offset="0" style="stop-color:#A46800"/>
			<stop  offset="1" style="stop-color:#E8D050"/>
		</linearGradient>
		
			<path id="path4521" sodipodi:type="star" sodipodi:sides="5" sodipodi:cx="69.877968" sodipodi:cy="335.41425" sodipodi:r1="86.929985" sodipodi:r2="43.464993" sodipodi:arg1="0.933726" sodipodi:arg2="1.5620445" inkscape:flatsided="false" inkscape:rounded="0" inkscape:randomized="0" inkscape:transform-center-x="0.029387579" inkscape:transform-center-y="-1.0096501" fill="url(#path4521_1_)" stroke="#945800" stroke-width="4" d="
			M-53.574,55.245l-44.869-23.106L-142.9,56.029l8.093-49.867l-36.447-34.934l49.881-7.708l21.939-45.491l22.732,45.102l49.999,6.83
			l-35.839,35.58L-53.574,55.245z"/>
		
			<linearGradient id="path4523_1_" gradientUnits="userSpaceOnUse" x1="200.2998" y1="78.5322" x2="200.2998" y2="-62.7526" gradientTransform="matrix(1 0 0 -1 -299.2891 -26.958)">
			<stop  offset="0" style="stop-color:#FFFFFF"/>
			<stop  offset="1" style="stop-color:#FCFC80"/>
		</linearGradient>
		<path id="path4523" inkscape:connector-curvature="0" opacity="0.6" fill="url(#path4523_1_)" enable-background="new    " d="
			M-99.477-81.971l-21.853,45.493l-49.949,7.671l32.463,31.066C-113.598-11.144-68.4-19.65-37.079-19.724l10.38-10.286
			l-50.045-6.889L-99.477-81.971z"/>
	</g>
	<g>
		<g>
			
				<linearGradient id="path4505_1_" gradientUnits="userSpaceOnUse" x1="3878.0078" y1="-4789.7412" x2="3878.0078" y2="-3725.3027" gradientTransform="matrix(0.125 0 0 -0.125 -122.1523 -251.4236)">
				<stop  offset="0" style="stop-color:#B3B3B3"/>
				<stop  offset="1" style="stop-color:#E6E6E6"/>
			</linearGradient>
			
				<path id="path4505" sodipodi:type="star" sodipodi:sides="5" sodipodi:cx="69.877968" sodipodi:cy="335.41425" sodipodi:r1="86.929985" sodipodi:r2="43.464993" sodipodi:arg1="0.933726" sodipodi:arg2="1.5620445" inkscape:flatsided="false" inkscape:rounded="0" inkscape:randomized="0" inkscape:transform-center-x="0.029387579" inkscape:transform-center-y="-1.0096501" fill="url(#path4505_1_)" stroke="#666666" stroke-width="4" d="
				M407.996,347.313l-44.85-23.135l-44.463,23.911l8.095-49.868l-36.446-34.925l49.885-7.722l21.919-45.485l22.714,45.115
				l50.015,6.8l-35.839,35.599L407.996,347.313z"/>
			
				<linearGradient id="path4507_1_" gradientUnits="userSpaceOnUse" x1="1102.2461" y1="-613.7554" x2="1102.2461" y2="-839.0214" gradientTransform="matrix(0.5 0 0 -0.5 -188.5327 -93.8486)">
				<stop  offset="0" style="stop-color:#FFFFFF"/>
				<stop  offset="1" style="stop-color:#FFFFFF;stop-opacity:0"/>
			</linearGradient>
			<path id="path4507" inkscape:connector-curvature="0" fill="url(#path4507_1_)" d="M362.093,210.089l-21.835,45.491
				l-49.947,7.674l32.443,31.065c25.221-13.421,70.416-21.893,101.736-21.983l10.381-10.304l-50.059-6.87L362.093,210.089z"/>
		</g>
		<g>
			
				<linearGradient id="path4573_1_" gradientUnits="userSpaceOnUse" x1="2823.0391" y1="-4155.5195" x2="2823.0391" y2="-4733.8271" gradientTransform="matrix(0.125 0 0 -0.125 -144.1523 -251.4236)">
				<stop  offset="0" style="stop-color:#A46800"/>
				<stop  offset="1" style="stop-color:#E8D050"/>
			</linearGradient>
			
				<path id="path4573" sodipodi:type="star" sodipodi:sides="5" sodipodi:cx="69.877968" sodipodi:cy="335.41425" sodipodi:r1="86.929985" sodipodi:r2="43.464993" sodipodi:arg1="0.933726" sodipodi:arg2="1.5620445" inkscape:flatsided="false" inkscape:rounded="0" inkscape:randomized="0" inkscape:transform-center-x="0.029387579" inkscape:transform-center-y="-1.0096501" fill="url(#path4573_1_)" stroke="#945800" stroke-width="4" d="
				M254.164,348.313l-44.887-23.135l-44.458,23.911l8.09-49.868l-36.447-34.925l49.885-7.722l21.919-45.485l22.754,45.115
				l49.975,6.8l-35.799,35.599L254.164,348.313z"/>
			
				<linearGradient id="path4575_1_" gradientUnits="userSpaceOnUse" x1="464.0098" y1="-174.5283" x2="464.0098" y2="-315.8132" gradientTransform="matrix(1 0 0 -1 -255.2886 13.042)">
				<stop  offset="0" style="stop-color:#FFFFFF"/>
				<stop  offset="1" style="stop-color:#FCFC80"/>
			</linearGradient>
			<path id="path4575" inkscape:connector-curvature="0" opacity="0.6" fill="url(#path4575_1_)" enable-background="new    " d="
				M208.223,211.089L186.39,256.58l-49.949,7.674l32.444,31.065c25.221-13.421,70.441-21.893,101.736-21.983l10.381-10.304
				l-50.025-6.87L208.223,211.089z"/>
		</g>
		
			<linearGradient id="path4553_1_" gradientUnits="userSpaceOnUse" x1="-341.4805" y1="-4165.918" x2="-341.4805" y2="-4744.2256" gradientTransform="matrix(0.125 0 0 -0.125 -210.1523 -251.4236)">
			<stop  offset="0" style="stop-color:#A46800"/>
			<stop  offset="1" style="stop-color:#E8D050"/>
		</linearGradient>
		
			<path id="path4553" sodipodi:type="star" sodipodi:sides="5" sodipodi:cx="69.877968" sodipodi:cy="335.41425" sodipodi:r1="86.929985" sodipodi:r2="43.464993" sodipodi:arg1="0.933726" sodipodi:arg2="1.5620445" inkscape:flatsided="false" inkscape:rounded="0" inkscape:randomized="0" inkscape:transform-center-x="0.029387579" inkscape:transform-center-y="-1.0096501" fill="url(#path4553_1_)" stroke="#945800" stroke-width="4" d="
			M-207.424,349.612l-44.869-23.135l-44.458,23.911l8.095-49.868l-36.447-34.925l49.878-7.722l21.922-45.485l22.734,45.115
			l49.998,6.8l-35.819,35.599L-207.424,349.612z"/>
		
			<linearGradient id="path4555_1_" gradientUnits="userSpaceOnUse" x1="68.4404" y1="-175.8281" x2="68.4404" y2="-317.113" gradientTransform="matrix(1 0 0 -1 -321.2891 13.042)">
			<stop  offset="0" style="stop-color:#FFFFFF"/>
			<stop  offset="1" style="stop-color:#FCFC80"/>
		</linearGradient>
		<path id="path4555" inkscape:connector-curvature="0" opacity="0.6" fill="url(#path4555_1_)" enable-background="new    " d="
			M-253.33,212.389l-21.87,45.491l-49.93,7.674l32.461,31.065c25.219-13.421,70.417-21.893,101.719-21.983l10.381-10.304
			l-50.045-6.87L-253.33,212.389z"/>
		
			<linearGradient id="path4557_1_" gradientUnits="userSpaceOnUse" x1="713.3945" y1="-4165.918" x2="713.3945" y2="-4744.2256" gradientTransform="matrix(0.125 0 0 -0.125 -188.1523 -251.4236)">
			<stop  offset="0" style="stop-color:#A46800"/>
			<stop  offset="1" style="stop-color:#E8D050"/>
		</linearGradient>
		
			<path id="path4557" sodipodi:type="star" sodipodi:sides="5" sodipodi:cx="69.877968" sodipodi:cy="335.41425" sodipodi:r1="86.929985" sodipodi:r2="43.464993" sodipodi:arg1="0.933726" sodipodi:arg2="1.5620445" inkscape:flatsided="false" inkscape:rounded="0" inkscape:randomized="0" inkscape:transform-center-x="0.029387579" inkscape:transform-center-y="-1.0096501" fill="url(#path4557_1_)" stroke="#945800" stroke-width="4" d="
			M-53.574,349.612l-44.869-23.135l-44.458,23.911l8.093-49.868l-36.447-34.925l49.881-7.722l21.939-45.485l22.732,45.115
			l49.999,6.8l-35.839,35.599L-53.574,349.612z"/>
		
			<linearGradient id="path4559_1_" gradientUnits="userSpaceOnUse" x1="200.2998" y1="-175.8281" x2="200.2998" y2="-317.113" gradientTransform="matrix(1 0 0 -1 -299.2891 13.042)">
			<stop  offset="0" style="stop-color:#FFFFFF"/>
			<stop  offset="1" style="stop-color:#FCFC80"/>
		</linearGradient>
		<path id="path4559" inkscape:connector-curvature="0" opacity="0.6" fill="url(#path4559_1_)" enable-background="new    " d="
			M-99.477,212.389l-21.853,45.491l-49.949,7.674l32.463,31.065c25.217-13.421,70.416-21.893,101.737-21.983l10.38-10.304
			l-50.045-6.87L-99.477,212.389z"/>
		
			<linearGradient id="path4569_1_" gradientUnits="userSpaceOnUse" x1="1768.3359" y1="-4165.918" x2="1768.3359" y2="-4744.2256" gradientTransform="matrix(0.125 0 0 -0.125 -166.1523 -251.4236)">
			<stop  offset="0" style="stop-color:#A46800"/>
			<stop  offset="1" style="stop-color:#E8D050"/>
		</linearGradient>
		
			<path id="path4569" sodipodi:type="star" sodipodi:sides="5" sodipodi:cx="69.877968" sodipodi:cy="335.41425" sodipodi:r1="86.929985" sodipodi:r2="43.464993" sodipodi:arg1="0.933726" sodipodi:arg2="1.5620445" inkscape:flatsided="false" inkscape:rounded="0" inkscape:randomized="0" inkscape:transform-center-x="0.029387579" inkscape:transform-center-y="-1.0096501" fill="url(#path4569_1_)" stroke="#945800" stroke-width="4" d="
			M100.296,349.612l-44.889-23.135L10.95,350.389l8.104-49.868l-36.438-34.925l49.862-7.722l21.938-45.485l22.734,45.115l50.014,6.8
			l-35.839,35.599L100.296,349.612z"/>
		
			<linearGradient id="path4571_1_" gradientUnits="userSpaceOnUse" x1="332.1699" y1="-175.8281" x2="332.1699" y2="-317.113" gradientTransform="matrix(1 0 0 -1 -277.2886 13.042)">
			<stop  offset="0" style="stop-color:#FFFFFF"/>
			<stop  offset="1" style="stop-color:#FCFC80"/>
		</linearGradient>
		<path id="path4571" inkscape:connector-curvature="0" opacity="0.6" fill="url(#path4571_1_)" enable-background="new    " d="
			M54.373,212.389L32.521,257.88l-49.93,7.674l32.443,31.065c25.218-13.421,70.436-21.893,101.757-21.983l10.381-10.304
			l-50.064-6.87L54.373,212.389z"/>
	</g>
	<g>
		
			<linearGradient id="path4489_1_" gradientUnits="userSpaceOnUse" x1="2823.0469" y1="-3786.7021" x2="2823.0469" y2="-2722.2637" gradientTransform="matrix(0.125 0 0 -0.125 -144.1523 -271.4236)">
			<stop  offset="0" style="stop-color:#B3B3B3"/>
			<stop  offset="1" style="stop-color:#E6E6E6"/>
		</linearGradient>
		
			<path id="path4489" sodipodi:type="star" sodipodi:sides="5" sodipodi:cx="69.877968" sodipodi:cy="335.41425" sodipodi:r1="86.929985" sodipodi:r2="43.464993" sodipodi:arg1="0.933726" sodipodi:arg2="1.5620445" inkscape:flatsided="false" inkscape:rounded="0" inkscape:randomized="0" inkscape:transform-center-x="0.029387579" inkscape:transform-center-y="-1.0096501" fill="url(#path4489_1_)" stroke="#666666" stroke-width="4" d="
			M254.164,201.933l-44.887-23.135l-44.458,23.911l8.09-49.867l-36.447-34.927l49.885-7.721l21.919-45.485l22.754,45.115l49.975,6.8
			l-35.799,35.599L254.164,201.933z"/>
		
			<linearGradient id="path4491_1_" gradientUnits="userSpaceOnUse" x1="838.5068" y1="-362.9956" x2="838.5068" y2="-588.2617" gradientTransform="matrix(0.5 0 0 -0.5 -210.5327 -113.8486)">
			<stop  offset="0" style="stop-color:#FFFFFF"/>
			<stop  offset="1" style="stop-color:#FFFFFF;stop-opacity:0"/>
		</linearGradient>
		<path id="path4491" inkscape:connector-curvature="0" fill="url(#path4491_1_)" d="M208.223,64.709l-21.833,45.492l-49.949,7.673
			l32.444,31.065c25.221-13.421,70.441-21.891,101.736-21.983l10.381-10.303l-50.025-6.87L208.223,64.709z"/>
		
			<linearGradient id="path4493_1_" gradientUnits="userSpaceOnUse" x1="3878.0078" y1="-3786.7021" x2="3878.0078" y2="-2722.2637" gradientTransform="matrix(0.125 0 0 -0.125 -122.1523 -271.4236)">
			<stop  offset="0" style="stop-color:#B3B3B3"/>
			<stop  offset="1" style="stop-color:#E6E6E6"/>
		</linearGradient>
		
			<path id="path4493" sodipodi:type="star" sodipodi:sides="5" sodipodi:cx="69.877968" sodipodi:cy="335.41425" sodipodi:r1="86.929985" sodipodi:r2="43.464993" sodipodi:arg1="0.933726" sodipodi:arg2="1.5620445" inkscape:flatsided="false" inkscape:rounded="0" inkscape:randomized="0" inkscape:transform-center-x="0.029387579" inkscape:transform-center-y="-1.0096501" fill="url(#path4493_1_)" stroke="#666666" stroke-width="4" d="
			M407.996,201.933l-44.85-23.135l-44.463,23.911l8.095-49.867l-36.446-34.927l49.885-7.721l21.919-45.485l22.714,45.115l50.015,6.8
			l-35.839,35.599L407.996,201.933z"/>
		
			<linearGradient id="path4495_1_" gradientUnits="userSpaceOnUse" x1="1102.2461" y1="-362.9956" x2="1102.2461" y2="-588.2617" gradientTransform="matrix(0.5 0 0 -0.5 -188.5327 -113.8486)">
			<stop  offset="0" style="stop-color:#FFFFFF"/>
			<stop  offset="1" style="stop-color:#FFFFFF;stop-opacity:0"/>
		</linearGradient>
		<path id="path4495" inkscape:connector-curvature="0" fill="url(#path4495_1_)" d="M362.093,64.709l-21.835,45.492l-49.947,7.673
			l32.443,31.065c25.221-13.421,70.416-21.891,101.736-21.983l10.381-10.303l-50.059-6.87L362.093,64.709z"/>
		
			<linearGradient id="path4537_1_" gradientUnits="userSpaceOnUse" x1="-341.4805" y1="-3144.4805" x2="-341.4805" y2="-3722.7883" gradientTransform="matrix(0.125 0 0 -0.125 -210.1523 -271.4236)">
			<stop  offset="0" style="stop-color:#A46800"/>
			<stop  offset="1" style="stop-color:#E8D050"/>
		</linearGradient>
		
			<path id="path4537" sodipodi:type="star" sodipodi:sides="5" sodipodi:cx="69.877968" sodipodi:cy="335.41425" sodipodi:r1="86.929985" sodipodi:r2="43.464993" sodipodi:arg1="0.933726" sodipodi:arg2="1.5620445" inkscape:flatsided="false" inkscape:rounded="0" inkscape:randomized="0" inkscape:transform-center-x="0.029387579" inkscape:transform-center-y="-1.0096501" fill="url(#path4537_1_)" stroke="#945800" stroke-width="4" d="
			M-207.424,201.933l-44.869-23.135l-44.458,23.911l8.095-49.867l-36.447-34.927l49.878-7.721l21.922-45.485l22.734,45.115
			l49.998,6.8l-35.819,35.599L-207.424,201.933z"/>
		
			<linearGradient id="path4539_1_" gradientUnits="userSpaceOnUse" x1="68.4404" y1="-48.1484" x2="68.4404" y2="-189.4333" gradientTransform="matrix(1 0 0 -1 -321.2891 -6.958)">
			<stop  offset="0" style="stop-color:#FFFFFF"/>
			<stop  offset="1" style="stop-color:#FCFC80"/>
		</linearGradient>
		<path id="path4539" inkscape:connector-curvature="0" opacity="0.6" fill="url(#path4539_1_)" enable-background="new    " d="
			M-253.33,64.709l-21.87,45.492l-49.93,7.673l32.461,31.065c25.219-13.421,70.417-21.891,101.719-21.983l10.381-10.303
			l-50.045-6.87L-253.33,64.709z"/>
		
			<linearGradient id="path4541_1_" gradientUnits="userSpaceOnUse" x1="713.3945" y1="-3144.4805" x2="713.3945" y2="-3722.7883" gradientTransform="matrix(0.125 0 0 -0.125 -188.1523 -271.4236)">
			<stop  offset="0" style="stop-color:#A46800"/>
			<stop  offset="1" style="stop-color:#E8D050"/>
		</linearGradient>
		
			<path id="path4541" sodipodi:type="star" sodipodi:sides="5" sodipodi:cx="69.877968" sodipodi:cy="335.41425" sodipodi:r1="86.929985" sodipodi:r2="43.464993" sodipodi:arg1="0.933726" sodipodi:arg2="1.5620445" inkscape:flatsided="false" inkscape:rounded="0" inkscape:randomized="0" inkscape:transform-center-x="0.029387579" inkscape:transform-center-y="-1.0096501" fill="url(#path4541_1_)" stroke="#945800" stroke-width="4" d="
			M-53.574,201.933l-44.869-23.135l-44.458,23.911l8.093-49.867l-36.447-34.927l49.881-7.721l21.939-45.485l22.732,45.115
			l49.999,6.8l-35.839,35.599L-53.574,201.933z"/>
		
			<linearGradient id="path4543_1_" gradientUnits="userSpaceOnUse" x1="200.2998" y1="-48.1484" x2="200.2998" y2="-189.4333" gradientTransform="matrix(1 0 0 -1 -299.2891 -6.958)">
			<stop  offset="0" style="stop-color:#FFFFFF"/>
			<stop  offset="1" style="stop-color:#FCFC80"/>
		</linearGradient>
		<path id="path4543" inkscape:connector-curvature="0" opacity="0.6" fill="url(#path4543_1_)" enable-background="new    " d="
			M-99.477,64.709l-21.853,45.492l-49.949,7.673l32.463,31.065c25.217-13.421,70.416-21.891,101.737-21.983l10.38-10.303
			l-50.045-6.87L-99.477,64.709z"/>
		
			<linearGradient id="path4585_1_" gradientUnits="userSpaceOnUse" x1="1768.3359" y1="-3144.4805" x2="1768.3359" y2="-3722.7883" gradientTransform="matrix(0.125 0 0 -0.125 -166.1523 -271.4236)">
			<stop  offset="0" style="stop-color:#A46800"/>
			<stop  offset="1" style="stop-color:#E8D050"/>
		</linearGradient>
		
			<path id="path4585" sodipodi:type="star" sodipodi:sides="5" sodipodi:cx="69.877968" sodipodi:cy="335.41425" sodipodi:r1="86.929985" sodipodi:r2="43.464993" sodipodi:arg1="0.933726" sodipodi:arg2="1.5620445" inkscape:flatsided="false" inkscape:rounded="0" inkscape:randomized="0" inkscape:transform-center-x="0.029387579" inkscape:transform-center-y="-1.0096501" fill="url(#path4585_1_)" stroke="#945800" stroke-width="4" d="
			M100.296,201.933l-44.889-23.135L10.95,202.709l8.104-49.867l-36.438-34.927l49.862-7.721l21.938-45.485l22.734,45.115l50.014,6.8
			l-35.839,35.599L100.296,201.933z"/>
		
			<linearGradient id="path4587_1_" gradientUnits="userSpaceOnUse" x1="332.1699" y1="-48.1484" x2="332.1699" y2="-189.4333" gradientTransform="matrix(1 0 0 -1 -277.2886 -6.958)">
			<stop  offset="0" style="stop-color:#FFFFFF"/>
			<stop  offset="1" style="stop-color:#FCFC80"/>
		</linearGradient>
		<path id="path4587" inkscape:connector-curvature="0" opacity="0.6" fill="url(#path4587_1_)" enable-background="new    " d="
			M54.373,64.709l-21.853,45.492l-49.93,7.673l32.443,31.065c25.218-13.421,70.436-21.891,101.757-21.983l10.381-10.303
			l-50.064-6.87L54.373,64.709z"/>
	</g>
	<g>
		
			<linearGradient id="path4593_1_" gradientUnits="userSpaceOnUse" x1="-341.4805" y1="-5187.3633" x2="-341.4805" y2="-5765.6709" gradientTransform="matrix(0.125 0 0 -0.125 -210.1523 -231.4236)">
			<stop  offset="0" style="stop-color:#A46800"/>
			<stop  offset="1" style="stop-color:#E8D050"/>
		</linearGradient>
		
			<path id="path4593" sodipodi:type="star" sodipodi:sides="5" sodipodi:cx="69.877968" sodipodi:cy="335.41425" sodipodi:r1="86.929985" sodipodi:r2="43.464993" sodipodi:arg1="0.933726" sodipodi:arg2="1.5620445" inkscape:flatsided="false" inkscape:rounded="0" inkscape:randomized="0" inkscape:transform-center-x="0.029387579" inkscape:transform-center-y="-1.0096501" fill="url(#path4593_1_)" stroke="#945800" stroke-width="4" d="
			M-207.424,497.292l-44.869-23.135l-44.458,23.912l8.095-49.867l-36.447-34.927l49.878-7.722l21.922-45.484l22.734,45.111
			l49.998,6.804l-35.819,35.599L-207.424,497.292z"/>
		
			<linearGradient id="path4595_1_" gradientUnits="userSpaceOnUse" x1="68.4404" y1="-303.5093" x2="68.4404" y2="-444.7925" gradientTransform="matrix(1 0 0 -1 -321.2891 33.042)">
			<stop  offset="0" style="stop-color:#FFFFFF"/>
			<stop  offset="1" style="stop-color:#FCFC80"/>
		</linearGradient>
		<path id="path4595" inkscape:connector-curvature="0" opacity="0.6" fill="url(#path4595_1_)" enable-background="new    " d="
			M-253.33,360.069l-21.87,45.492l-49.93,7.672l32.461,31.065c25.219-13.42,70.417-21.926,101.719-21.982l10.381-10.303
			l-50.045-6.872L-253.33,360.069z"/>
		
			<linearGradient id="path4597_1_" gradientUnits="userSpaceOnUse" x1="713.3945" y1="-5187.3633" x2="713.3945" y2="-5765.6709" gradientTransform="matrix(0.125 0 0 -0.125 -188.1523 -231.4236)">
			<stop  offset="0" style="stop-color:#A46800"/>
			<stop  offset="1" style="stop-color:#E8D050"/>
		</linearGradient>
		
			<path id="path4597" sodipodi:type="star" sodipodi:sides="5" sodipodi:cx="69.877968" sodipodi:cy="335.41425" sodipodi:r1="86.929985" sodipodi:r2="43.464993" sodipodi:arg1="0.933726" sodipodi:arg2="1.5620445" inkscape:flatsided="false" inkscape:rounded="0" inkscape:randomized="0" inkscape:transform-center-x="0.029387579" inkscape:transform-center-y="-1.0096501" fill="url(#path4597_1_)" stroke="#945800" stroke-width="4" d="
			M-53.574,497.292l-44.869-23.135l-44.458,23.912l8.093-49.867l-36.447-34.927l49.881-7.722l21.939-45.484l22.732,45.111
			l49.999,6.804l-35.839,35.599L-53.574,497.292z"/>
		
			<linearGradient id="path4599_1_" gradientUnits="userSpaceOnUse" x1="200.2998" y1="-303.5093" x2="200.2998" y2="-444.7925" gradientTransform="matrix(1 0 0 -1 -299.2891 33.042)">
			<stop  offset="0" style="stop-color:#FFFFFF"/>
			<stop  offset="1" style="stop-color:#FCFC80"/>
		</linearGradient>
		<path id="path4599" inkscape:connector-curvature="0" opacity="0.6" fill="url(#path4599_1_)" enable-background="new    " d="
			M-99.477,360.069l-21.853,45.492l-49.949,7.672l32.463,31.065c25.217-13.42,70.416-21.926,101.737-21.982l10.38-10.303
			l-50.045-6.872L-99.477,360.069z"/>
		
			<linearGradient id="path4601_1_" gradientUnits="userSpaceOnUse" x1="1768.3359" y1="-5187.3633" x2="1768.3359" y2="-5765.6709" gradientTransform="matrix(0.125 0 0 -0.125 -166.1523 -231.4236)">
			<stop  offset="0" style="stop-color:#A46800"/>
			<stop  offset="1" style="stop-color:#E8D050"/>
		</linearGradient>
		
			<path id="path4601" sodipodi:type="star" sodipodi:sides="5" sodipodi:cx="69.877968" sodipodi:cy="335.41425" sodipodi:r1="86.929985" sodipodi:r2="43.464993" sodipodi:arg1="0.933726" sodipodi:arg2="1.5620445" inkscape:flatsided="false" inkscape:rounded="0" inkscape:randomized="0" inkscape:transform-center-x="0.029387579" inkscape:transform-center-y="-1.0096501" fill="url(#path4601_1_)" stroke="#945800" stroke-width="4" d="
			M100.296,497.292l-44.889-23.135L10.95,498.069l8.104-49.867l-36.438-34.927l49.862-7.722l21.938-45.484l22.734,45.111
			l50.014,6.804l-35.839,35.599L100.296,497.292z"/>
		
			<linearGradient id="path4603_1_" gradientUnits="userSpaceOnUse" x1="332.1699" y1="-303.5093" x2="332.1699" y2="-444.7925" gradientTransform="matrix(1 0 0 -1 -277.2886 33.042)">
			<stop  offset="0" style="stop-color:#FFFFFF"/>
			<stop  offset="1" style="stop-color:#FCFC80"/>
		</linearGradient>
		<path id="path4603" inkscape:connector-curvature="0" opacity="0.6" fill="url(#path4603_1_)" enable-background="new    " d="
			M54.373,360.069l-21.853,45.492l-49.93,7.672l32.443,31.065c25.218-13.42,70.436-21.926,101.757-21.982l10.381-10.303
			l-50.064-6.872L54.373,360.069z"/>
		<g>
			
				<linearGradient id="path4605_1_" gradientUnits="userSpaceOnUse" x1="2823.0391" y1="-5176.9648" x2="2823.0391" y2="-5755.2725" gradientTransform="matrix(0.125 0 0 -0.125 -144.1523 -231.4236)">
				<stop  offset="0" style="stop-color:#A46800"/>
				<stop  offset="1" style="stop-color:#E8D050"/>
			</linearGradient>
			
				<path id="path4605" sodipodi:type="star" sodipodi:sides="5" sodipodi:cx="69.877968" sodipodi:cy="335.41425" sodipodi:r1="86.929985" sodipodi:r2="43.464993" sodipodi:arg1="0.933726" sodipodi:arg2="1.5620445" inkscape:flatsided="false" inkscape:rounded="0" inkscape:randomized="0" inkscape:transform-center-x="0.029387579" inkscape:transform-center-y="-1.0096501" fill="url(#path4605_1_)" stroke="#945800" stroke-width="4" d="
				M254.164,495.992l-44.887-23.135l-44.458,23.912l8.09-49.867l-36.447-34.927l49.885-7.722l21.919-45.484l22.754,45.111
				l49.975,6.804l-35.799,35.599L254.164,495.992z"/>
			
				<linearGradient id="path4607_1_" gradientUnits="userSpaceOnUse" x1="464.0098" y1="-302.2095" x2="464.0098" y2="-443.4927" gradientTransform="matrix(1 0 0 -1 -255.2886 33.042)">
				<stop  offset="0" style="stop-color:#FFFFFF"/>
				<stop  offset="1" style="stop-color:#FCFC80"/>
			</linearGradient>
			<path id="path4607" inkscape:connector-curvature="0" opacity="0.6" fill="url(#path4607_1_)" enable-background="new    " d="
				M208.223,358.77l-21.833,45.492l-49.949,7.672l32.444,31.065c25.221-13.42,70.441-21.926,101.736-21.982l10.381-10.303
				l-50.025-6.872L208.223,358.77z"/>
		</g>
		<g>
			
				<linearGradient id="path4625_1_" gradientUnits="userSpaceOnUse" x1="3878" y1="-5168.9648" x2="3878" y2="-5747.2725" gradientTransform="matrix(0.125 0 0 -0.125 -122.1523 -231.4236)">
				<stop  offset="0" style="stop-color:#A46800"/>
				<stop  offset="1" style="stop-color:#E8D050"/>
			</linearGradient>
			
				<path id="path4625" sodipodi:type="star" sodipodi:sides="5" sodipodi:cx="69.877968" sodipodi:cy="335.41425" sodipodi:r1="86.929985" sodipodi:r2="43.464993" sodipodi:arg1="0.933726" sodipodi:arg2="1.5620445" inkscape:flatsided="false" inkscape:rounded="0" inkscape:randomized="0" inkscape:transform-center-x="0.029387579" inkscape:transform-center-y="-1.0096501" fill="url(#path4625_1_)" stroke="#945800" stroke-width="4" d="
				M407.996,494.992l-44.85-23.135l-44.463,23.912l8.095-49.867l-36.446-34.927l49.885-7.722l21.919-45.484l22.714,45.111
				l50.015,6.804l-35.839,35.599L407.996,494.992z"/>
			
				<linearGradient id="path4627_1_" gradientUnits="userSpaceOnUse" x1="595.8789" y1="-301.2095" x2="595.8789" y2="-442.4927" gradientTransform="matrix(1 0 0 -1 -233.2886 33.042)">
				<stop  offset="0" style="stop-color:#FFFFFF"/>
				<stop  offset="1" style="stop-color:#FCFC80"/>
			</linearGradient>
			<path id="path4627" inkscape:connector-curvature="0" opacity="0.6" fill="url(#path4627_1_)" enable-background="new    " d="
				M362.093,357.77l-21.835,45.492l-49.947,7.672l32.443,31.065c25.221-13.42,70.416-21.926,101.736-21.982l10.381-10.303
				l-50.059-6.872L362.093,357.77z"/>
		</g>
	</g>
</g>
</svg>
